<svg width="67" height="60" viewBox="0 0 67 60" fill="none" xmlns="http://www.w3.org/2000/svg">
<path fill-rule="evenodd" clip-rule="evenodd" d="M1.13122 31.5996L7.71525 36.5412C10.7003 49.9641 22.6781 60 37 60C53.5686 60 67 46.5685 67 30C67 13.4315 53.5686 0 37 0C22.6781 0 10.7003 10.0359 7.71525 23.4587L1.13122 28.4004C0.0653103 29.2004 0.0653096 30.7995 1.13122 31.5996ZM22.104 22.672C22.376 22.512 22.784 22.36 23.328 22.216C23.888 22.072 24.448 22 25.008 22C25.808 22 26.512 22.12 27.12 22.36C27.744 22.584 28.144 22.944 28.32 23.44C28.608 24.272 28.92 25.24 29.256 26.344C29.592 27.448 29.928 28.592 30.264 29.776C30.6 30.944 30.928 32.104 31.248 33.256C31.568 34.392 31.848 35.4 32.088 36.28C31.896 36.504 31.608 36.68 31.224 36.808C30.84 36.952 30.384 37.024 29.856 37.024C29.472 37.024 29.144 36.992 28.872 36.928C28.616 36.864 28.4 36.768 28.224 36.64C28.064 36.512 27.928 36.344 27.816 36.136C27.72 35.928 27.632 35.688 27.552 35.416L27.12 33.76H22.776C22.648 34.24 22.52 34.736 22.392 35.248C22.264 35.76 22.136 36.256 22.008 36.736C21.784 36.816 21.544 36.88 21.288 36.928C21.048 36.992 20.752 37.024 20.4 37.024C19.584 37.024 18.976 36.888 18.576 36.616C18.192 36.328 18 35.936 18 35.44C18 35.216 18.032 34.992 18.096 34.768C18.16 34.544 18.232 34.28 18.312 33.976C18.424 33.544 18.576 33.008 18.768 32.368C18.976 31.728 19.2 31.04 19.44 30.304C19.68 29.552 19.936 28.784 20.208 28C20.48 27.216 20.736 26.48 20.976 25.792C21.216 25.088 21.432 24.464 21.624 23.92C21.832 23.376 21.992 22.96 22.104 22.672ZM24.984 25.768C24.76 26.44 24.504 27.192 24.216 28.024C23.944 28.84 23.696 29.672 23.472 30.52H26.448C26.224 29.656 25.992 28.816 25.752 28C25.528 27.168 25.32 26.424 25.128 25.768H24.984ZM36.2869 36.856C35.5989 36.856 35.0549 36.656 34.6549 36.256C34.2549 35.856 34.0549 35.312 34.0549 34.624V22.216C34.2309 22.184 34.5109 22.144 34.8949 22.096C35.2789 22.032 35.6469 22 35.9989 22C36.3669 22 36.6869 22.032 36.9589 22.096C37.2469 22.144 37.4869 22.24 37.6789 22.384C37.8709 22.528 38.0149 22.728 38.1109 22.984C38.2069 23.24 38.2549 23.576 38.2549 23.992V33.472H43.7509C43.8629 33.648 43.9669 33.888 44.0629 34.192C44.1589 34.48 44.2069 34.784 44.2069 35.104C44.2069 35.744 44.0709 36.2 43.7989 36.472C43.5269 36.728 43.1669 36.856 42.7189 36.856H36.2869ZM46.9596 36.256C47.3596 36.656 47.9036 36.856 48.5916 36.856H55.0236C55.4716 36.856 55.8316 36.728 56.1036 36.472C56.3756 36.2 56.5116 35.744 56.5116 35.104C56.5116 34.784 56.4636 34.48 56.3676 34.192C56.2716 33.888 56.1676 33.648 56.0556 33.472H50.5596V23.992C50.5596 23.576 50.5116 23.24 50.4156 22.984C50.3196 22.728 50.1756 22.528 49.9836 22.384C49.7916 22.24 49.5516 22.144 49.2636 22.096C48.9916 22.032 48.6716 22 48.3036 22C47.9516 22 47.5836 22.032 47.1996 22.096C46.8156 22.144 46.5356 22.184 46.3596 22.216V34.624C46.3596 35.312 46.5596 35.856 46.9596 36.256Z" fill="#8DB7DE"/>
</svg>
