<svg width="39" height="16" viewBox="0 0 39 16" fill="none" xmlns="http://www.w3.org/2000/svg">
<path d="M4.104 0.672001C4.376 0.512001 4.784 0.36 5.328 0.216C5.888 0.072 6.448 0 7.008 0C7.808 0 8.512 0.12 9.12 0.360001C9.744 0.584001 10.144 0.944001 10.32 1.44C10.608 2.272 10.92 3.24 11.256 4.344C11.592 5.448 11.928 6.592 12.264 7.776C12.6 8.944 12.928 10.104 13.248 11.256C13.568 12.392 13.848 13.4 14.088 14.28C13.896 14.504 13.608 14.68 13.224 14.808C12.84 14.952 12.384 15.024 11.856 15.024C11.472 15.024 11.144 14.992 10.872 14.928C10.616 14.864 10.4 14.768 10.224 14.64C10.064 14.512 9.928 14.344 9.816 14.136C9.72 13.928 9.632 13.688 9.552 13.416L9.12 11.76H4.776C4.648 12.24 4.52 12.736 4.392 13.248C4.264 13.76 4.136 14.256 4.008 14.736C3.784 14.816 3.544 14.88 3.288 14.928C3.048 14.992 2.752 15.024 2.4 15.024C1.584 15.024 0.976 14.888 0.576 14.616C0.192 14.328 0 13.936 0 13.44C0 13.216 0.032 12.992 0.096 12.768C0.16 12.544 0.232 12.28 0.312 11.976C0.424 11.544 0.576 11.008 0.768 10.368C0.976 9.728 1.2 9.04 1.44 8.304C1.68 7.552 1.936 6.784 2.208 6C2.48 5.216 2.736 4.48 2.976 3.792C3.216 3.088 3.432 2.464 3.624 1.92C3.832 1.376 3.992 0.960001 4.104 0.672001ZM6.984 3.768C6.76 4.44 6.504 5.192 6.216 6.024C5.944 6.84 5.696 7.672 5.472 8.52H8.448C8.224 7.656 7.992 6.816 7.752 6C7.528 5.168 7.32 4.424 7.128 3.768H6.984Z" fill="white"/>
<path d="M18.2869 14.856C17.5989 14.856 17.0549 14.656 16.6549 14.256C16.2549 13.856 16.0549 13.312 16.0549 12.624V0.216C16.2309 0.184 16.5109 0.144001 16.8949 0.0960002C17.2789 0.0320001 17.6469 0 17.9989 0C18.3669 0 18.6869 0.0320001 18.9589 0.0960002C19.2469 0.144001 19.4869 0.240001 19.6789 0.384001C19.8709 0.528001 20.0149 0.728001 20.1109 0.984C20.2069 1.24 20.2549 1.576 20.2549 1.992V11.472H25.7509C25.8629 11.648 25.9669 11.888 26.0629 12.192C26.1589 12.48 26.2069 12.784 26.2069 13.104C26.2069 13.744 26.0709 14.2 25.7989 14.472C25.5269 14.728 25.1669 14.856 24.7189 14.856H18.2869Z" fill="white"/>
<path d="M30.5916 14.856C29.9036 14.856 29.3596 14.656 28.9596 14.256C28.5596 13.856 28.3596 13.312 28.3596 12.624V0.216C28.5356 0.184 28.8156 0.144001 29.1996 0.0960002C29.5836 0.0320001 29.9516 0 30.3036 0C30.6716 0 30.9916 0.0320001 31.2636 0.0960002C31.5516 0.144001 31.7916 0.240001 31.9836 0.384001C32.1756 0.528001 32.3196 0.728001 32.4156 0.984C32.5116 1.24 32.5596 1.576 32.5596 1.992V11.472H38.0556C38.1676 11.648 38.2716 11.888 38.3676 12.192C38.4636 12.48 38.5116 12.784 38.5116 13.104C38.5116 13.744 38.3756 14.2 38.1036 14.472C37.8316 14.728 37.4716 14.856 37.0236 14.856H30.5916Z" fill="white"/>
</svg>
