<svg width="67" height="60" viewBox="0 0 67 60" fill="none" xmlns="http://www.w3.org/2000/svg">
<path fill-rule="evenodd" clip-rule="evenodd" d="M7.38346 36.5412L0.799431 31.5996C-0.266478 30.7995 -0.266477 29.2005 0.799432 28.4004L7.38346 23.4587C10.3685 10.0359 22.3464 0 36.6682 0C53.2368 0 66.6682 13.4315 66.6682 30C66.6682 46.5685 53.2368 60 36.6682 60C22.3464 60 10.3685 49.9641 7.38346 36.5412Z" fill="#8DB7DE"/>
<path d="M21.7722 22.672C22.0442 22.512 22.4522 22.36 22.9962 22.216C23.5562 22.072 24.1162 22 24.6762 22C25.4762 22 26.1802 22.12 26.7882 22.36C27.4122 22.584 27.8122 22.944 27.9882 23.44C28.2762 24.272 28.5882 25.24 28.9242 26.344C29.2602 27.448 29.5962 28.592 29.9322 29.776C30.2682 30.944 30.5962 32.104 30.9162 33.256C31.2362 34.392 31.5162 35.4 31.7562 36.28C31.5642 36.504 31.2762 36.68 30.8922 36.808C30.5082 36.952 30.0522 37.024 29.5242 37.024C29.1402 37.024 28.8122 36.992 28.5402 36.928C28.2842 36.864 28.0682 36.768 27.8922 36.64C27.7322 36.512 27.5962 36.344 27.4842 36.136C27.3882 35.928 27.3002 35.688 27.2202 35.416L26.7882 33.76H22.4442C22.3162 34.24 22.1882 34.736 22.0602 35.248C21.9322 35.76 21.8042 36.256 21.6762 36.736C21.4522 36.816 21.2122 36.88 20.9562 36.928C20.7162 36.992 20.4202 37.024 20.0682 37.024C19.2522 37.024 18.6442 36.888 18.2442 36.616C17.8602 36.328 17.6682 35.936 17.6682 35.44C17.6682 35.216 17.7002 34.992 17.7642 34.768C17.8282 34.544 17.9002 34.28 17.9802 33.976C18.0922 33.544 18.2442 33.008 18.4362 32.368C18.6442 31.728 18.8682 31.04 19.1082 30.304C19.3482 29.552 19.6042 28.784 19.8762 28C20.1482 27.216 20.4042 26.48 20.6442 25.792C20.8842 25.088 21.1002 24.464 21.2922 23.92C21.5002 23.376 21.6602 22.96 21.7722 22.672ZM24.6522 25.768C24.4282 26.44 24.1722 27.192 23.8842 28.024C23.6122 28.84 23.3642 29.672 23.1402 30.52H26.1162C25.8922 29.656 25.6602 28.816 25.4202 28C25.1962 27.168 24.9882 26.424 24.7962 25.768H24.6522Z" fill="#ECF0F3"/>
<path d="M35.9551 36.856C35.2671 36.856 34.7231 36.656 34.3231 36.256C33.9231 35.856 33.7231 35.312 33.7231 34.624V22.216C33.8991 22.184 34.1791 22.144 34.5631 22.096C34.9471 22.032 35.3151 22 35.6671 22C36.0351 22 36.3551 22.032 36.6271 22.096C36.9151 22.144 37.1551 22.24 37.3471 22.384C37.5391 22.528 37.6831 22.728 37.7791 22.984C37.8751 23.24 37.9231 23.576 37.9231 23.992V33.472H43.4191C43.5311 33.648 43.6351 33.888 43.7311 34.192C43.8271 34.48 43.8751 34.784 43.8751 35.104C43.8751 35.744 43.7391 36.2 43.4671 36.472C43.1951 36.728 42.8351 36.856 42.3871 36.856H35.9551Z" fill="#ECF0F3"/>
<path d="M48.2598 36.856C47.5718 36.856 47.0278 36.656 46.6278 36.256C46.2278 35.856 46.0278 35.312 46.0278 34.624V22.216C46.2038 22.184 46.4838 22.144 46.8678 22.096C47.2518 22.032 47.6198 22 47.9718 22C48.3398 22 48.6598 22.032 48.9318 22.096C49.2198 22.144 49.4598 22.24 49.6518 22.384C49.8438 22.528 49.9878 22.728 50.0838 22.984C50.1798 23.24 50.2278 23.576 50.2278 23.992V33.472H55.7238C55.8358 33.648 55.9398 33.888 56.0358 34.192C56.1318 34.48 56.1798 34.784 56.1798 35.104C56.1798 35.744 56.0438 36.2 55.7718 36.472C55.4998 36.728 55.1398 36.856 54.6918 36.856H48.2598Z" fill="#ECF0F3"/>
</svg>
