<svg width="30" height="34" viewBox="0 0 30 34" fill="none" xmlns="http://www.w3.org/2000/svg">
<path d="M10.7366 0.0366391C11.3949 -0.0774346 12.071 0.0772953 12.6165 0.466829C13.454 1.07634 14.0702 1.94717 14.3701 2.94528C14.8761 4.48626 14.8408 6.15644 14.2701 7.67416C13.9915 8.41668 13.5456 9.08338 12.9677 9.62137C12.4968 10.0591 11.8854 10.3104 11.2459 10.3289C10.6064 10.3475 9.98174 10.1322 9.48677 9.72246C8.69985 9.07342 8.13824 8.18764 7.88355 7.19387C7.46108 5.73387 7.50503 4.17639 8.00913 2.7431C8.31348 1.88476 8.85181 1.13092 9.56198 0.568632C9.89927 0.286715 10.3061 0.102821 10.7388 0.0366391H10.7366ZM20.2792 0.796642C20.7429 0.720596 21.2185 0.80071 21.6328 1.02465C22.2168 1.32299 22.7231 1.75629 23.1104 2.28939C23.6793 3.02414 24.0503 3.89528 24.1873 4.81798C24.2677 5.45667 24.2079 6.10542 24.012 6.71808C23.8105 7.4701 23.4796 8.18041 23.0344 8.81648C22.6689 9.38381 22.1803 9.85949 21.6057 10.2074C21.0731 10.5379 20.4502 10.6886 19.8273 10.6376C19.0548 10.6122 18.3172 10.3071 17.7488 9.77795C17.2148 9.2222 16.8571 8.51799 16.7216 7.75552C16.5794 6.94527 16.5624 6.11762 16.6712 5.3021C16.7935 4.59395 17.0488 3.91599 17.4232 3.30479C17.8002 2.65444 18.2832 2.07316 18.8519 1.58555C19.2433 1.19042 19.7396 0.918275 20.2807 0.801986L20.2792 0.796642ZM3.12277 7.67496C3.8197 7.55983 4.53469 7.68455 5.15312 8.02913C6.05058 8.55905 6.76695 9.35281 7.20677 10.3046C7.39877 10.692 7.51785 11.1121 7.55794 11.5435C7.70952 12.6265 7.63264 13.7297 7.33235 14.7805C7.14224 15.5009 6.7506 16.1506 6.20438 16.6517C5.50172 17.2472 4.61643 17.5778 3.69949 17.5873C2.93606 17.5856 2.19847 17.3076 1.62032 16.8037C0.879483 16.1198 0.37106 15.2171 0.16749 14.2241C0.000464953 13.5637 -0.0421337 12.8773 0.041916 12.201C0.16289 11.0636 0.549496 9.9716 1.16989 9.01487C1.62558 8.32945 2.32636 7.84918 3.12502 7.67496H3.12277ZM25.4137 10.1785C26.2483 10.0517 27.1011 10.2027 27.8433 10.6087C28.5136 11.0064 29.0605 11.5856 29.4225 12.2808C29.7297 12.8603 29.9172 13.4969 29.9737 14.1519C30.0368 15.0819 29.9863 16.0162 29.8233 16.9337C29.7065 17.5773 29.4405 18.1839 29.0473 18.7038C28.6526 19.1911 28.1191 19.544 27.5192 19.7146C26.9227 19.8698 26.3031 19.9129 25.6912 19.8415C24.9478 19.7967 24.2338 19.5324 23.6375 19.0815C23.1374 18.6579 22.7714 18.0953 22.5847 17.4634C22.3668 16.6136 22.2738 15.736 22.3088 14.8588C22.3103 13.9416 22.4801 13.0327 22.8096 12.1782C23.0687 11.5367 23.5145 10.9899 24.0879 10.6102C24.495 10.3729 24.9475 10.2263 25.4152 10.18L25.4137 10.1785ZM14.3182 13.5166C15.1576 13.4211 16.0068 13.561 16.7727 13.9209C17.9325 14.5303 18.8973 15.4598 19.555 16.6015C20.4366 17.8515 21.4174 19.0269 22.4878 20.1159C23.4996 21.1541 24.5611 22.1416 25.6686 23.0747C25.8438 23.2267 26.0446 23.3787 26.2199 23.555C27.0575 24.4435 27.57 25.5943 27.6726 26.8171C27.7687 28.1051 27.527 29.396 26.9718 30.5595C26.5843 31.4172 25.9345 32.1264 25.1181 32.5827C23.9677 33.1515 22.6894 33.4044 21.4117 33.3162C20.1774 33.2617 18.9559 33.0406 17.7796 32.6587C16.3539 32.26 14.8646 32.1484 13.3963 32.3304C12.7196 32.4064 12.0428 32.6086 11.366 32.7104C9.83494 32.9635 8.28041 33.04 6.73228 32.9384C6.08861 32.9044 5.45927 32.7336 4.88527 32.4373C4.31128 32.1409 3.80553 31.7256 3.40098 31.2185C2.90599 30.5897 2.53991 29.8675 2.32412 29.0942C2.08615 28.3868 1.98407 27.64 2.02335 26.8939C2.06362 26.016 2.30343 25.1594 2.72419 24.3903C3.37078 23.2543 4.25051 22.2713 5.30425 21.5075C5.61458 21.3061 5.90031 21.0683 6.15551 20.7992C6.63151 20.3432 7.13306 19.9145 7.6083 19.4592C8.50739 18.6117 9.30586 17.6614 9.98762 16.6274C10.1877 16.3233 10.338 16.0193 10.5636 15.7419C11.4835 14.5349 12.8319 13.7369 14.3235 13.5166H14.3182ZM11.663 18.852V22.038H9.43412C9.1869 22.0409 8.9417 22.0835 8.70772 22.1642C8.11338 22.3536 7.57211 22.6832 7.12856 23.1256C6.60733 23.6623 6.22842 24.3231 6.0269 25.047C5.91376 25.7007 5.91376 26.3694 6.0269 27.0231C6.13465 27.6585 6.39262 28.2582 6.77889 28.7712C7.28948 29.4662 8.02493 29.9583 8.85735 30.162C9.2548 30.2291 9.65897 30.246 10.0605 30.2122H13.8204V18.8254C13.094 18.8505 12.3916 18.8505 11.666 18.8505L11.663 18.852ZM14.9439 22.19V27.9047C14.9364 28.221 14.9949 28.5354 15.1156 28.8273C15.2364 29.1192 15.4167 29.3821 15.6447 29.5988C16.0635 29.9712 16.5922 30.1934 17.1487 30.2312H22.308V22.19H20.1754V28.385H17.9195C17.797 28.3932 17.6743 28.3723 17.5613 28.324C17.4482 28.2757 17.3478 28.2013 17.2683 28.1069C17.1209 27.93 17.0409 27.7057 17.0427 27.4745V22.1642C16.3659 22.19 15.6651 22.19 14.9371 22.19L14.9439 22.19Z" fill="white"/>
<path d="M9.30854 24.0088C9.44721 23.9318 9.60165 23.8883 9.75973 23.8819H11.6608V28.4086H9.95752C9.66215 28.4146 9.36999 28.346 9.1074 28.2092C8.84482 28.0724 8.6201 27.8716 8.45353 27.625C8.17811 27.205 8.03017 26.7129 8.0279 26.2091C8.02732 25.793 8.10384 25.3806 8.25349 24.993C8.47807 24.5484 8.851 24.1985 9.30629 24.005L9.30854 24.0088Z" fill="white"/>
</svg>
