<svg width="32" height="20" viewBox="0 0 32 20" fill="none" xmlns="http://www.w3.org/2000/svg">
<path d="M20.4481 3.33733H28.9222V0.909333H20.4481V3.33733ZM22.4555 8.63467C21.9154 9.184 21.5754 9.928 21.4354 10.868H28.0268C27.9568 9.86533 27.6148 9.108 27.0088 8.58667C26.3955 8.06867 25.6408 7.81067 24.7375 7.81067C23.7595 7.81067 22.9955 8.08533 22.4555 8.63467ZM28.1755 5.37533C29.1968 5.82467 30.0382 6.53733 30.7002 7.51C31.3042 8.36733 31.6915 9.36267 31.8688 10.4927C31.9722 11.1533 32.0135 12.1113 31.9962 13.3567H21.3414C21.4054 14.8033 21.9101 15.818 22.8735 16.3993C23.4561 16.7613 24.1581 16.9427 24.9821 16.9427C25.8495 16.9427 26.5588 16.7227 27.1021 16.2827C27.4021 16.0427 27.6655 15.712 27.8908 15.2893H31.7955C31.6915 16.1427 31.2175 17.0133 30.3782 17.8967C29.0688 19.2987 27.2341 20 24.8768 20C22.9301 20 21.2121 19.41 19.7274 18.2253C18.2354 17.0433 17.4941 15.1167 17.4941 12.4513C17.4941 9.95133 18.1654 8.03333 19.5074 6.69867C20.8528 5.368 22.5928 4.698 24.7361 4.698C26.0095 4.698 27.1555 4.92467 28.1755 5.37533ZM3.94202 10.92V16.1227H8.74338C9.60138 16.1227 10.2707 16.0073 10.7467 15.7793C11.6141 15.3527 12.0467 14.5427 12.0467 13.344C12.0467 12.3267 11.6294 11.6307 10.7887 11.2507C10.3181 11.0387 9.65738 10.9273 8.81071 10.92H3.94202ZM3.94202 3.38733V7.692H8.75071C9.60672 7.692 10.3047 7.53067 10.8427 7.20733C11.3774 6.88467 11.6461 6.31267 11.6461 5.496C11.6461 4.58467 11.2927 3.98533 10.5854 3.692C9.97205 3.48933 9.19271 3.38733 8.24671 3.38733H3.94202ZM14.6814 2.07867C15.2854 2.90867 15.5881 3.9 15.5881 5.056C15.5881 6.246 15.2854 7.20533 14.6734 7.92933C14.3314 8.334 13.8287 8.70533 13.1647 9.03933C14.1734 9.40333 14.9334 9.97667 15.4507 10.762C15.9628 11.5453 16.2201 12.4993 16.2201 13.6207C16.2201 14.7767 15.9268 15.814 15.3381 16.7313C14.9748 17.3286 14.4994 17.8499 13.9381 18.2667C13.3074 18.7433 12.5647 19.068 11.7047 19.2467C10.8447 19.4227 9.91539 19.508 8.91071 19.508H0V0H9.55605C11.9681 0.0353333 13.6747 0.727333 14.6814 2.07867Z" fill="white"/>
</svg>
