<svg width="30" height="30" viewBox="0 0 30 30" fill="none" xmlns="http://www.w3.org/2000/svg">
<path fill-rule="evenodd" clip-rule="evenodd" d="M18.0233 26.6159C17.0575 26.8666 16.0443 27 15 27C13.0821 27 11.2693 26.5501 9.66138 25.75C11.7142 22.924 14.0397 20.7104 16.8162 19.2687C17.035 19.1552 17.257 19.0461 17.4826 18.9416C18.024 21.807 18.1567 24.5279 18.0233 26.6159ZM3 15C3 18.6315 4.61312 21.8862 7.1619 24.0868C9.4231 20.9506 12.1014 18.3365 15.4338 16.6062C15.8722 16.3786 16.3204 16.1671 16.7785 15.9722C16.676 15.6162 16.5666 15.2605 16.45 14.906C16.2013 14.1494 15.9221 13.4041 15.6106 12.6772C15.13 12.8967 14.6421 13.0979 14.146 13.2816C10.7919 14.5239 7.14882 14.9391 3 14.9936C3 14.9957 3 14.9979 3 15ZM3.38143 11.9869C7.17973 11.9121 10.3069 11.5043 13.104 10.4684C13.4925 10.3245 13.8762 10.1679 14.2558 9.99743C12.9454 7.79028 11.2582 5.88299 9.12965 4.53146C6.31835 6.11131 4.20791 8.79083 3.38143 11.9869ZM19.3 13.969C19.4142 14.3164 19.5221 14.6648 19.6241 15.0135C21.8523 14.4469 24.2952 14.2306 26.9856 14.4077C26.8384 11.3781 25.5677 8.64356 23.5812 6.61168C21.8532 8.5337 20.0986 10.0508 18.254 11.2339C18.6516 12.1361 18.9987 13.0526 19.3 13.969ZM16.8827 8.54657C15.7239 6.57659 14.2741 4.75847 12.4765 3.2658C13.2901 3.09166 14.1344 3 15 3C17.2806 3 19.4127 3.63621 21.2283 4.74084C19.7857 6.32693 18.3529 7.57093 16.8827 8.54657ZM21.0698 25.3539C21.0923 23.1704 20.8798 20.5933 20.3409 17.9268C22.2423 17.4405 24.365 17.2442 26.7601 17.3993C26.0725 20.7876 23.9574 23.6575 21.0698 25.3539ZM30 15C30 23.2843 23.2843 30 15 30C6.71573 30 0 23.2843 0 15C0 6.71573 6.71573 0 15 0C23.2843 0 30 6.71573 30 15Z" fill="white"/>
</svg>
