<svg width="30" height="30" viewBox="0 0 30 30" fill="none" xmlns="http://www.w3.org/2000/svg">
<path d="M29.7638 12.4313H14.9231V17.9081H23.8481C23.2359 19.7721 22.0509 21.3952 20.4622 22.5463C18.8734 23.6974 16.9619 24.3176 15 24.3188C12.5614 24.2698 10.2391 23.2667 8.53182 21.5248C6.82449 19.7829 5.86818 17.441 5.86818 15.0019C5.86818 12.5628 6.82449 10.2209 8.53182 8.47895C10.2391 6.73702 12.5614 5.73393 15 5.685C17.385 5.685 19.5562 6.59063 21.2025 8.0625L24.9975 3.84375C22.2557 1.36919 18.6934 -0.000392709 15 8.44656e-08C11.0218 8.44656e-08 7.20644 1.58035 4.3934 4.3934C1.58035 7.20644 0 11.0218 0 15C0 18.9782 1.58035 22.7936 4.3934 25.6066C7.20644 28.4196 11.0218 30 15 30C18.9782 30 22.7936 28.4196 25.6066 25.6066C28.4196 22.7936 30 18.9782 30 15C29.9954 14.1385 29.9164 13.2791 29.7638 12.4313Z" fill="white"/>
</svg>
