<svg width="79" height="18" viewBox="0 0 79 18" fill="none" xmlns="http://www.w3.org/2000/svg">
<path fill-rule="evenodd" clip-rule="evenodd" d="M45.5911 4.02885H47.6698L47.6699 6.13132H45.5391V15.6286H43.1231V6.13132H41.5605V4.02895H43.1799V2.22176C43.1799 0.831045 44.2822 0 45.3479 0H47.691V1.95124H46.5201C46.0584 1.95124 45.5911 2.27633 45.5911 2.89777V4.02885ZM76.8372 15.6279L78.8847 15.6271V13.7607H77.9335C77.4162 13.7607 77.0262 13.374 77.0262 12.861V6.13123H78.8846V4.03944H77.0262V1.64529H74.6306V4.03944H72.7753V6.13123H74.6306V13.474C74.6307 14.5099 75.4743 15.6279 76.8372 15.6279ZM15.5393 11.2442L15.5165 11.3963C15.4347 11.9414 15.3341 12.396 15.2173 12.7472C15.0977 13.1056 14.9116 13.4479 14.6702 13.757L14.6443 13.7867C14.6379 13.7931 14.632 13.7992 14.6268 13.805L14.6012 13.8372C14.5822 13.8642 14.5612 13.8892 14.5228 13.9296C14.0391 14.4923 13.4279 14.9275 12.7063 15.2229C11.9831 15.5189 11.164 15.6691 10.2716 15.6691C8.41813 15.6691 6.95698 15.172 5.9287 14.1916C4.8983 13.2095 4.37585 11.8049 4.37585 10.0168C4.37585 8.13617 4.89724 6.65059 5.92563 5.60137C6.95476 4.55161 8.40322 4.01944 10.231 4.01944C11.7022 4.01944 12.9212 4.39086 13.8541 5.12323C14.7915 5.85952 15.351 6.8858 15.517 8.1735L15.5364 8.32273H13.0889L13.065 8.22015C12.8945 7.4865 12.5682 6.93994 12.0673 6.54938C11.5658 6.15861 10.9651 5.96866 10.231 5.96866C9.19249 5.96866 8.40185 6.2925 7.81404 6.95888C7.23005 7.6206 6.93393 8.55392 6.93393 9.73269C6.93393 11.0209 7.22402 12.0234 7.79617 12.7123C8.37012 13.404 9.16669 13.7402 10.231 13.7402C10.963 13.7402 11.549 13.5447 12.0225 13.1426C12.4933 12.743 12.8444 12.1368 13.0664 11.341L13.0934 11.2442H15.5393ZM2.42767 4.01965H0V15.6285H2.42767V4.01965ZM22.8799 4.01965C24.6665 4.01965 26.0911 4.54146 27.1136 5.57049C28.1358 6.59972 28.654 8.0412 28.6539 9.85464C28.6539 11.655 28.1357 13.0862 27.1135 14.1085C26.0914 15.1307 24.6669 15.6489 22.8799 15.6489C21.0927 15.6489 19.665 15.1307 18.6365 14.1086C17.6074 13.0867 17.0856 11.6554 17.0856 9.85464C17.0856 8.04068 17.6073 6.5992 18.6362 5.57028C19.6652 4.54136 21.0931 4.01965 22.8799 4.01965ZM22.88 13.7201C23.9164 13.7201 24.6927 13.3875 25.2535 12.7031C25.8125 12.0202 26.0959 11.0345 26.0961 9.77341C26.0961 8.58078 25.8064 7.63668 25.2349 6.96734C24.6605 6.29546 23.8902 5.96888 22.88 5.96888C21.8431 5.96888 21.0631 6.29852 20.4956 6.97675C19.9302 7.65254 19.6436 8.62086 19.6436 9.85464C19.6436 11.0754 19.9304 12.0368 20.4955 12.712C21.0628 13.3903 21.8428 13.7201 22.88 13.7201ZM58.3251 5.57049C57.3025 4.54146 55.8779 4.01965 54.0914 4.01965C52.3045 4.01965 50.8766 4.54136 49.8476 5.57028C48.8187 6.5992 48.297 8.04068 48.297 9.85464C48.297 11.6554 48.8188 13.0867 49.8479 14.1086C50.8764 15.1307 52.3042 15.6489 54.0914 15.6489C55.8784 15.6489 57.3028 15.1307 58.325 14.1085C59.3471 13.0862 59.8653 11.655 59.8653 9.85464C59.8653 8.0412 59.3471 6.59972 58.3251 5.57049ZM56.4648 12.7031C55.9041 13.3875 55.1277 13.7201 54.0914 13.7201C53.0541 13.7201 52.2741 13.3903 51.7068 12.712C51.1417 12.0368 50.855 11.0754 50.855 9.85464C50.855 8.62086 51.1416 7.65254 51.7069 6.97675C52.2744 6.29852 53.0544 5.96888 54.0914 5.96888C55.1016 5.96888 55.8718 6.29546 56.4462 6.96734C57.0177 7.63668 57.3075 8.58078 57.3075 9.77341C57.3073 11.0345 57.0238 12.0202 56.4648 12.7031ZM37.6011 6.91193C37.1311 6.34305 36.4242 6.05444 35.5 6.05444C34.593 6.05444 33.8607 6.3586 33.3827 6.93392C33.0152 7.37641 32.8044 7.98579 32.8044 8.60606V15.6823H30.369V4.1251H32.785V5.5413L33.3126 5.11034C33.6922 4.79856 34.7598 4.0737 36.4678 4.0737C38.7339 4.0737 40.5777 5.83203 40.5777 7.9933V15.6824H38.1618V8.60617C38.1618 7.95142 37.9627 7.34987 37.6011 6.91193ZM68.4824 6.91193C68.0124 6.34305 67.3055 6.05444 66.3813 6.05444C65.4743 6.05444 64.742 6.3586 64.264 6.93392C63.8965 7.37641 63.6857 7.98579 63.6857 8.60606V15.6823H61.2503V4.1251H63.6662V5.5413L64.1939 5.11034C64.5735 4.79856 65.6411 4.0737 67.349 4.0737C69.6152 4.0737 71.459 5.83203 71.459 7.9933V15.6824H69.0431V8.60617C69.0431 7.95142 68.8439 7.34987 68.4824 6.91193Z" fill="white"/>
</svg>
