<svg width="90" height="17" viewBox="0 0 90 17" fill="none" xmlns="http://www.w3.org/2000/svg">
<path fill-rule="evenodd" clip-rule="evenodd" d="M46.0584 4.78892H48.1371L48.1372 6.89139H46.0064V16.3887H43.5905V6.89139H42.0279V4.78903H43.6473V2.98183C43.6473 1.59112 44.7496 0.760071 45.8153 0.760071H48.1584V2.71131H46.9874C46.5258 2.71131 46.0584 3.0364 46.0584 3.65784V4.78892ZM77.3046 16.3879L79.352 16.3872V14.5208H78.4008C77.8836 14.5208 77.4936 14.134 77.4936 13.6211V6.8913H79.3519V4.79951H77.4936V2.40536H75.0979V4.79951H73.2426V6.8913H75.0979V14.2341C75.098 15.27 75.9417 16.3879 77.3046 16.3879ZM87.6472 4.79771H89.573V6.90366H87.6472V8.82952H85.5412V6.90366H83.6154V4.79771H85.5412V2.87186H87.6472V4.79771ZM15.9838 12.1563L16.0067 12.0043H13.5607L13.5338 12.101C13.3118 12.8969 12.9607 13.5031 12.4898 13.9027C12.0163 14.3048 11.4303 14.5003 10.6984 14.5003C9.63404 14.5003 8.83747 14.164 8.26352 13.4724C7.69137 12.7835 7.40127 11.781 7.40127 10.4928C7.40127 9.31399 7.6974 8.38067 8.28139 7.71895C8.86919 7.05257 9.65984 6.72873 10.6984 6.72873C11.4324 6.72873 12.0332 6.91868 12.5347 7.30945C13.0355 7.70002 13.3619 8.24657 13.5324 8.98022L13.5563 9.0828H16.0037L15.9844 8.93357C15.8183 7.64587 15.2589 6.61959 14.3214 5.8833C13.3885 5.15093 12.1696 4.77951 10.6984 4.77951C8.87057 4.77951 7.42211 5.31169 6.39298 6.36144C5.36459 7.41066 4.8432 8.89624 4.8432 10.7768C4.8432 12.565 5.36564 13.9696 6.39604 14.9516C7.42433 15.9321 8.88548 16.4292 10.739 16.4292C11.6314 16.4292 12.4505 16.279 13.1736 15.983C13.8952 15.6876 14.5064 15.2524 14.9901 14.6897C15.0285 14.6493 15.0496 14.6243 15.0685 14.5972L15.0941 14.5651C15.0994 14.5593 15.1052 14.5531 15.1117 14.5468L15.1376 14.5171C15.3789 14.2079 15.565 13.8657 15.6847 13.5073C15.8014 13.1561 15.9021 12.7015 15.9838 12.1563ZM0.467346 4.77972H2.89502V16.3886H0.467346V4.77972ZM27.581 6.33056C26.5584 5.30153 25.1339 4.77972 23.3473 4.77972C21.5604 4.77972 20.1326 5.30143 19.1035 6.33035C18.0746 7.35927 17.5529 8.80075 17.5529 10.6147C17.5529 12.4154 18.0747 13.8468 19.1039 14.8687C20.1324 15.8908 21.5601 16.409 23.3473 16.409C25.1343 16.409 26.5587 15.8908 27.5809 14.8686C28.603 13.8462 29.1212 12.415 29.1212 10.6147C29.1214 8.80128 28.6031 7.35979 27.581 6.33056ZM25.7208 13.4632C25.1601 14.1476 24.3837 14.4802 23.3474 14.4802C22.3101 14.4802 21.5302 14.1504 20.9629 13.4721C20.3977 12.7969 20.111 11.8355 20.111 10.6147C20.111 9.38093 20.3976 8.41261 20.963 7.73682C21.5305 7.0586 22.3104 6.72895 23.3474 6.72895C24.3576 6.72895 25.1278 7.05553 25.7022 7.72741C26.2737 8.39675 26.5635 9.34085 26.5635 10.5335C26.5633 11.7945 26.2798 12.7803 25.7208 13.4632ZM54.5587 4.77972C56.3453 4.77972 57.7698 5.30153 58.7924 6.33056C59.8145 7.35979 60.3327 8.80128 60.3327 10.6147C60.3327 12.415 59.8145 13.8462 58.7923 14.8686C57.7702 15.8908 56.3457 16.409 54.5587 16.409C52.7715 16.409 51.3438 15.8908 50.3153 14.8687C49.2862 13.8468 48.7643 12.4154 48.7643 10.6147C48.7643 8.80075 49.286 7.35927 50.315 6.33035C51.344 5.30143 52.7718 4.77972 54.5587 4.77972ZM54.5587 14.4802C55.595 14.4802 56.3714 14.1476 56.9321 13.4632C57.4912 12.7803 57.7746 11.7945 57.7748 10.5335C57.7748 9.34085 57.485 8.39675 56.9135 7.72741C56.3391 7.05553 55.5689 6.72895 54.5587 6.72895C53.5218 6.72895 52.7418 7.0586 52.1743 7.73682C51.6089 8.41261 51.3223 9.38093 51.3223 10.6147C51.3223 11.8355 51.609 12.7969 52.1742 13.4721C52.7415 14.1504 53.5214 14.4802 54.5587 14.4802ZM35.9673 6.81451C36.8915 6.81451 37.5984 7.10313 38.0684 7.672C38.43 8.10994 38.6291 8.71149 38.6291 9.36624V16.4425H41.0451V8.75337C41.0451 6.5921 39.2013 4.83377 36.9351 4.83377C35.2271 4.83377 34.1596 5.55864 33.7799 5.87041L33.2523 6.30137V4.88517H30.8364V16.4424H33.2718V9.36613C33.2718 8.74586 33.4825 8.13648 33.85 7.69399C34.3281 7.11867 35.0603 6.81451 35.9673 6.81451ZM66.8486 6.81451C67.7728 6.81451 68.4797 7.10313 68.9497 7.672C69.3113 8.10994 69.5104 8.71149 69.5104 9.36624V16.4425H71.9264V8.75337C71.9264 6.5921 70.0826 4.83377 67.8164 4.83377C66.1084 4.83377 65.0409 5.55864 64.6612 5.87041L64.1336 6.30137V4.88517H61.7177V16.4424H64.153V9.36613C64.153 8.74586 64.3638 8.13648 64.7313 7.69399C65.2094 7.11867 65.9416 6.81451 66.8486 6.81451Z" fill="white"/>
</svg>
