<svg width="30" height="26" viewBox="0 0 30 26" fill="none" xmlns="http://www.w3.org/2000/svg">
<path d="M27.632 0H2.36798C1.0259 0 0 0.996732 0 2.30065V23.6993C0 24.9281 1.0259 26 2.36798 26H27.632C28.8967 26 30 24.9248 30 23.6993V2.30065C30 1.07516 28.9741 0 27.632 0ZM6.52607 4.04575C7.86815 4.04575 9.05214 5.12091 9.05214 6.5C9.05214 7.87909 7.94551 8.95425 6.52607 8.95425C5.18399 8.95425 4 7.87909 4 6.5C4 5.12091 5.18399 4.04575 6.52607 4.04575ZM5.91995 22.5523C5.68449 22.5523 5.44568 22.4771 5.21022 22.3235C4.73596 21.9412 4.73596 21.402 5.13286 20.9444L10.0269 14.2712C10.4205 13.8889 10.9754 13.8105 11.4464 14.1176L15.708 17.0327L23.367 9.05556C23.7605 8.6732 25.6576 6.67647 26.7608 8.90196V22.4739C26.7608 22.5523 5.91995 22.5523 5.91995 22.5523Z" fill="white"/>
</svg>
