<svg width="24" height="31" viewBox="0 0 24 31" fill="none" xmlns="http://www.w3.org/2000/svg">
<path d="M14.3921 22.0818C12.4698 22.0818 10.6597 21.3221 10.0418 20.1438C10.0418 20.1438 9.00714 24.2374 8.7888 25.0271C8.01688 27.822 5.74834 30.6167 5.57456 30.8426C5.4507 31.0013 5.17902 30.9521 5.15028 30.7413C5.10101 30.3854 4.52207 26.8625 5.20293 23.989C5.54509 22.5472 7.47353 14.0075 7.47353 14.0075C7.47353 14.0075 6.92401 13.1733 6.92401 11.4967C6.92401 8.86134 8.45485 7.05814 10.3607 7.05814C11.9798 7.05814 12.7593 8.10926 12.7593 9.56346C12.7593 11.1874 11.7246 13.6188 11.1894 15.8702C10.7426 17.7542 12.1352 19.131 13.9993 19.131C17.3723 19.131 19.6456 14.9683 19.6456 9.84266C19.6456 5.94885 17.0165 2.9426 12.2365 2.9426C6.83646 2.9426 3.66461 6.61401 3.66461 11.7581C3.66461 13.3074 4.10874 14.1867 4.82591 15.0285C5.15439 15.4165 5.20024 15.5759 5.08116 16.0214C4.99357 16.3472 4.61993 17.1362 4.53712 17.4448C4.4201 17.8979 4.05331 18.0566 3.64613 17.8903C1.15724 16.8775 0 14.1587 0 11.0991C0 6.05355 4.26472 0 12.7271 0C19.5252 0 24 4.90935 24 10.18C23.9993 17.1492 20.1144 22.0818 14.3921 22.0818" fill="white"/>
</svg>
