<svg width="21" height="21" viewBox="0 0 21 21" fill="none" xmlns="http://www.w3.org/2000/svg">
<path d="M10.4917 4.86759C7.38605 4.86759 4.86799 7.38602 4.86799 10.4917C4.86799 13.5971 7.38602 16.1152 10.4917 16.1152C13.5974 16.1152 16.1154 13.5972 16.1154 10.4917C16.1154 7.386 13.5974 4.86755 10.4917 4.86755L10.4917 4.86759ZM10.4917 4.14394C11.1952 4.14394 11.7653 3.5738 11.7653 2.8703V1.27364C11.7653 0.57014 11.1952 0 10.4917 0C9.78825 0 9.21804 0.570164 9.21804 1.27364V2.8703C9.21804 3.57377 9.7882 4.14394 10.4917 4.14394H10.4917ZM10.4917 16.8392C9.7882 16.8392 9.21806 17.4094 9.21806 18.1129V19.7095C9.21806 20.413 9.78823 20.9831 10.4917 20.9831C11.1952 20.9831 11.7653 20.413 11.7653 19.7095V18.1129C11.7653 17.4094 11.1952 16.8392 10.4917 16.8392H10.4917ZM19.7096 9.21804H18.1129C17.4094 9.21804 16.8394 9.78799 16.8394 10.4917C16.8394 11.195 17.4094 11.7652 18.1129 11.7652H19.7096C20.4131 11.7652 20.9832 11.195 20.9832 10.4917C20.9832 9.78799 20.413 9.21804 19.7096 9.21804ZM4.14396 10.4917C4.14396 9.78799 3.5738 9.21804 2.8703 9.21804H1.27366C0.570773 9.21804 0 9.78799 0 10.4917C0 11.195 0.570773 11.7652 1.27366 11.7652H2.8703C3.57382 11.7652 4.14396 11.195 4.14396 10.4917ZM16.7817 14.9804C16.2842 14.483 15.4784 14.483 14.9804 14.9804C14.483 15.4779 14.483 16.2841 14.9804 16.7815L16.1095 17.9102C16.3579 18.159 16.6837 18.2836 17.0102 18.2836C17.336 18.2836 17.6617 18.159 17.9102 17.9102C18.408 17.4126 18.408 16.6067 17.9102 16.1093L16.7817 14.9804H16.7817ZM4.20108 6.00321C4.45008 6.25221 4.77654 6.37619 5.10234 6.37619C5.42836 6.37619 5.754 6.25221 6.003 6.0038C6.50039 5.50641 6.50039 4.70006 6.0034 4.20209L4.87448 3.07294C4.37749 2.57618 3.57094 2.57618 3.07294 3.07193C2.57536 3.56993 2.57536 4.3763 3.07254 4.87366L4.20108 6.00321V6.00321ZM4.20171 14.9804L3.07298 16.1093C2.57541 16.6067 2.57541 17.4127 3.07298 17.9102C3.32119 18.159 3.64762 18.2836 3.97385 18.2836C4.29928 18.2836 4.62553 18.159 4.8739 17.9102L6.00302 16.7815C6.50041 16.2841 6.50041 15.478 6.00302 14.9804C5.50563 14.483 4.69849 14.483 4.20171 14.9804ZM15.8812 6.37619C16.2069 6.37619 16.5337 6.25221 16.7821 6.00321L17.9111 4.87366C18.408 4.3763 18.408 3.56993 17.9102 3.07193C17.4127 2.57618 16.6065 2.57517 16.1085 3.07294L14.98 4.20209C14.483 4.70009 14.483 5.50643 14.9804 6.0038C15.2294 6.25221 15.5552 6.37619 15.8812 6.37619V6.37619Z" fill="#FFD233"/>
</svg>
