<svg width="16" height="16" viewBox="0 0 16 16" fill="none" xmlns="http://www.w3.org/2000/svg">
<path d="M7.98233 16C3.79506 16 0.362197 12.788 0 8.69256C0.0229809 8.2986 0.342753 7.98231 0.74382 7.98231C0.973464 7.98231 1.17844 8.08481 1.31624 8.24736C1.32333 8.25442 1.32688 8.24736 1.32688 8.23142C2.21379 9.17311 3.46642 9.76324 4.86398 9.76324C7.57069 9.76324 9.76504 7.56891 9.76504 4.86393C9.76504 3.45757 9.16785 2.19964 8.21731 1.3127C8.21911 1.30916 8.22796 1.30916 8.2244 1.30564C8.07598 1.16781 7.98235 0.969927 7.98235 0.750857C7.98235 0.346272 8.30214 0.0229626 8.69965 0C12.7915 0.36392 16 3.79504 16 7.9823C16 12.4099 12.4117 16 7.98233 16Z" fill="#FFD233"/>
</svg>
